<mxfile host="app.diagrams.net" agent="Mozilla/5.0 (Windows NT 10.0; Win64; x64) AppleWebKit/537.36 (KHTML, like Gecko) Chrome/135.0.0.0 Safari/537.36" version="26.2.12">
  <diagram name="Page-1" id="97916047-d0de-89f5-080d-49f4d83e522f">
    <mxGraphModel dx="2251" dy="1420" grid="1" gridSize="10" guides="1" tooltips="1" connect="1" arrows="1" fold="1" page="1" pageScale="1.5" pageWidth="2336" pageHeight="1654" background="none" math="0" shadow="0">
      <root>
        <mxCell id="0" />
        <mxCell id="1" parent="0" />
        <mxCell id="2" value="oppgave a " style="rounded=1;fillColor=#10739E;strokeColor=none;shadow=1;gradientColor=none;fontStyle=1;fontColor=#FFFFFF;fontSize=14;" parent="1" vertex="1">
          <mxGeometry x="2060" y="1250" width="200" height="60" as="geometry" />
        </mxCell>
        <mxCell id="HFuG7gOnwEqwadIg8AbM-58" style="edgeStyle=orthogonalEdgeStyle;rounded=0;orthogonalLoop=1;jettySize=auto;html=1;entryX=0.5;entryY=1;entryDx=0;entryDy=0;" edge="1" parent="1" source="HFuG7gOnwEqwadIg8AbM-56" target="HFuG7gOnwEqwadIg8AbM-57">
          <mxGeometry relative="1" as="geometry" />
        </mxCell>
        <mxCell id="HFuG7gOnwEqwadIg8AbM-67" value="" style="edgeStyle=orthogonalEdgeStyle;rounded=0;orthogonalLoop=1;jettySize=auto;html=1;" edge="1" parent="1" source="HFuG7gOnwEqwadIg8AbM-56" target="HFuG7gOnwEqwadIg8AbM-66">
          <mxGeometry relative="1" as="geometry" />
        </mxCell>
        <mxCell id="HFuG7gOnwEqwadIg8AbM-70" style="edgeStyle=orthogonalEdgeStyle;rounded=0;orthogonalLoop=1;jettySize=auto;html=1;entryX=0.5;entryY=1;entryDx=0;entryDy=0;" edge="1" parent="1" source="HFuG7gOnwEqwadIg8AbM-56" target="HFuG7gOnwEqwadIg8AbM-59">
          <mxGeometry relative="1" as="geometry" />
        </mxCell>
        <mxCell id="HFuG7gOnwEqwadIg8AbM-56" value="Argumentasjonsdiagram, del 1 av a" style="rounded=1;whiteSpace=wrap;html=1;" vertex="1" parent="1">
          <mxGeometry x="1560" y="1080" width="240" height="60" as="geometry" />
        </mxCell>
        <mxCell id="HFuG7gOnwEqwadIg8AbM-57" value="hvordan strukturerer og velge program&amp;nbsp;" style="rounded=1;whiteSpace=wrap;html=1;" vertex="1" parent="1">
          <mxGeometry x="1410" y="890" width="120" height="60" as="geometry" />
        </mxCell>
        <mxCell id="HFuG7gOnwEqwadIg8AbM-65" value="" style="edgeStyle=orthogonalEdgeStyle;rounded=0;orthogonalLoop=1;jettySize=auto;html=1;" edge="1" parent="1" source="HFuG7gOnwEqwadIg8AbM-59" target="HFuG7gOnwEqwadIg8AbM-64">
          <mxGeometry relative="1" as="geometry" />
        </mxCell>
        <mxCell id="HFuG7gOnwEqwadIg8AbM-71" style="edgeStyle=orthogonalEdgeStyle;rounded=0;orthogonalLoop=1;jettySize=auto;html=1;entryX=1;entryY=0.5;entryDx=0;entryDy=0;" edge="1" parent="1" source="HFuG7gOnwEqwadIg8AbM-59" target="HFuG7gOnwEqwadIg8AbM-62">
          <mxGeometry relative="1" as="geometry">
            <Array as="points">
              <mxPoint x="2400" y="770" />
            </Array>
          </mxGeometry>
        </mxCell>
        <mxCell id="HFuG7gOnwEqwadIg8AbM-59" value="teori" style="rounded=1;whiteSpace=wrap;html=1;" vertex="1" parent="1">
          <mxGeometry x="2340" y="920" width="120" height="40" as="geometry" />
        </mxCell>
        <mxCell id="HFuG7gOnwEqwadIg8AbM-73" value="" style="edgeStyle=orthogonalEdgeStyle;rounded=0;orthogonalLoop=1;jettySize=auto;html=1;" edge="1" parent="1" source="HFuG7gOnwEqwadIg8AbM-60" target="HFuG7gOnwEqwadIg8AbM-62">
          <mxGeometry relative="1" as="geometry" />
        </mxCell>
        <mxCell id="HFuG7gOnwEqwadIg8AbM-60" value="Sammensatte argumenter" style="rounded=1;whiteSpace=wrap;html=1;" vertex="1" parent="1">
          <mxGeometry x="1690" y="850" width="120" height="60" as="geometry" />
        </mxCell>
        <mxCell id="HFuG7gOnwEqwadIg8AbM-62" value="Standpunktargumenter" style="rounded=1;whiteSpace=wrap;html=1;" vertex="1" parent="1">
          <mxGeometry x="1750" y="740" width="200" height="60" as="geometry" />
        </mxCell>
        <mxCell id="HFuG7gOnwEqwadIg8AbM-64" value="implisitte og eksplisitte påstander" style="rounded=1;whiteSpace=wrap;html=1;" vertex="1" parent="1">
          <mxGeometry x="2640" y="920" width="120" height="60" as="geometry" />
        </mxCell>
        <mxCell id="HFuG7gOnwEqwadIg8AbM-66" value="&#xa;&lt;span style=&quot;color: rgb(0, 0, 0); font-family: Arial, sans-serif; font-size: medium; font-style: normal; font-variant-ligatures: normal; font-variant-caps: normal; font-weight: 400; letter-spacing: normal; orphans: 2; text-align: left; text-indent: 0px; text-transform: none; widows: 2; word-spacing: 0px; -webkit-text-stroke-width: 0px; white-space: normal; background-color: rgb(242, 242, 242); text-decoration-thickness: initial; text-decoration-style: initial; text-decoration-color: initial; display: inline !important; float: none;&quot;&gt;&lt;span&gt;&amp;nbsp;&lt;/span&gt;Raymond Johansens debattinnlegg «Naivt om farene ved autonome våpen»&lt;/span&gt;&#xa;&#xa;" style="rounded=1;whiteSpace=wrap;html=1;" vertex="1" parent="1">
          <mxGeometry x="1560" y="1300" width="240" height="90" as="geometry" />
        </mxCell>
        <mxCell id="HFuG7gOnwEqwadIg8AbM-77" value="" style="edgeStyle=orthogonalEdgeStyle;rounded=0;orthogonalLoop=1;jettySize=auto;html=1;" edge="1" parent="1" source="HFuG7gOnwEqwadIg8AbM-68" target="HFuG7gOnwEqwadIg8AbM-62">
          <mxGeometry relative="1" as="geometry" />
        </mxCell>
        <mxCell id="HFuG7gOnwEqwadIg8AbM-79" value="" style="edgeStyle=orthogonalEdgeStyle;rounded=0;orthogonalLoop=1;jettySize=auto;html=1;" edge="1" parent="1" source="HFuG7gOnwEqwadIg8AbM-68" target="HFuG7gOnwEqwadIg8AbM-78">
          <mxGeometry relative="1" as="geometry" />
        </mxCell>
        <mxCell id="HFuG7gOnwEqwadIg8AbM-87" value="" style="edgeStyle=orthogonalEdgeStyle;rounded=0;orthogonalLoop=1;jettySize=auto;html=1;" edge="1" parent="1" source="HFuG7gOnwEqwadIg8AbM-68" target="HFuG7gOnwEqwadIg8AbM-86">
          <mxGeometry relative="1" as="geometry" />
        </mxCell>
        <mxCell id="HFuG7gOnwEqwadIg8AbM-68" value="velg 2" style="rounded=1;whiteSpace=wrap;html=1;" vertex="1" parent="1">
          <mxGeometry x="1520" y="710" width="120" height="60" as="geometry" />
        </mxCell>
        <mxCell id="HFuG7gOnwEqwadIg8AbM-100" style="edgeStyle=orthogonalEdgeStyle;rounded=0;orthogonalLoop=1;jettySize=auto;html=1;exitX=0.5;exitY=1;exitDx=0;exitDy=0;entryX=0.5;entryY=0;entryDx=0;entryDy=0;" edge="1" parent="1" source="HFuG7gOnwEqwadIg8AbM-72" target="HFuG7gOnwEqwadIg8AbM-98">
          <mxGeometry relative="1" as="geometry" />
        </mxCell>
        <mxCell id="HFuG7gOnwEqwadIg8AbM-72" value="Uavhenige argumenter" style="rounded=1;whiteSpace=wrap;html=1;" vertex="1" parent="1">
          <mxGeometry x="2035" y="860" width="120" height="60" as="geometry" />
        </mxCell>
        <mxCell id="HFuG7gOnwEqwadIg8AbM-75" value="&#xa;&lt;span style=&quot;color: rgb(0, 0, 0); font-family: Arial, sans-serif; font-size: medium; font-style: normal; font-variant-ligatures: normal; font-variant-caps: normal; font-weight: 400; letter-spacing: normal; orphans: 2; text-align: left; text-indent: 0px; text-transform: none; widows: 2; word-spacing: 0px; -webkit-text-stroke-width: 0px; white-space: normal; background-color: rgb(242, 242, 242); text-decoration-thickness: initial; text-decoration-style: initial; text-decoration-color: initial; display: inline !important; float: none;&quot;&gt;Gi en kort begrunnelse av valgene du har tatt i analysen.&lt;/span&gt;&#xa;&#xa;" style="rounded=1;whiteSpace=wrap;html=1;" vertex="1" parent="1">
          <mxGeometry x="1320" y="1190" width="190" height="100" as="geometry" />
        </mxCell>
        <mxCell id="HFuG7gOnwEqwadIg8AbM-76" style="edgeStyle=orthogonalEdgeStyle;rounded=0;orthogonalLoop=1;jettySize=auto;html=1;entryX=0.351;entryY=1.024;entryDx=0;entryDy=0;entryPerimeter=0;" edge="1" parent="1" source="HFuG7gOnwEqwadIg8AbM-75" target="HFuG7gOnwEqwadIg8AbM-56">
          <mxGeometry relative="1" as="geometry" />
        </mxCell>
        <mxCell id="HFuG7gOnwEqwadIg8AbM-81" value="" style="edgeStyle=orthogonalEdgeStyle;rounded=0;orthogonalLoop=1;jettySize=auto;html=1;" edge="1" parent="1" source="HFuG7gOnwEqwadIg8AbM-78" target="HFuG7gOnwEqwadIg8AbM-80">
          <mxGeometry relative="1" as="geometry" />
        </mxCell>
        <mxCell id="HFuG7gOnwEqwadIg8AbM-85" value="" style="edgeStyle=orthogonalEdgeStyle;rounded=0;orthogonalLoop=1;jettySize=auto;html=1;" edge="1" parent="1" source="HFuG7gOnwEqwadIg8AbM-78">
          <mxGeometry relative="1" as="geometry">
            <mxPoint x="1110" y="740" as="targetPoint" />
          </mxGeometry>
        </mxCell>
        <mxCell id="HFuG7gOnwEqwadIg8AbM-78" value="&#xa;&lt;span style=&quot;color: rgb(0, 0, 0); font-family: Arial, sans-serif; font-size: medium; font-style: normal; font-variant-ligatures: normal; font-variant-caps: normal; font-weight: 400; letter-spacing: normal; orphans: 2; text-align: left; text-indent: 0px; text-transform: none; widows: 2; word-spacing: 0px; -webkit-text-stroke-width: 0px; white-space: normal; background-color: rgb(242, 242, 242); text-decoration-thickness: initial; text-decoration-style: initial; text-decoration-color: initial; display: inline !important; float: none;&quot;&gt;Vurder i hvilken grad argumentene er riktige og relevante for standpunktet,&lt;/span&gt;&#xa;&#xa;" style="rounded=1;whiteSpace=wrap;html=1;" vertex="1" parent="1">
          <mxGeometry x="1140" y="710" width="280" height="60" as="geometry" />
        </mxCell>
        <mxCell id="HFuG7gOnwEqwadIg8AbM-80" value="&lt;span style=&quot;font-family: Arial, sans-serif; font-size: medium; text-align: left; background-color: rgb(242, 242, 242);&quot;&gt;&amp;nbsp;&lt;/span&gt;&lt;i style=&quot;box-sizing: revert-layer; font-family: Arial, sans-serif; font-size: medium; text-align: left; background-color: rgb(242, 242, 242);&quot;&gt;Tenk!&amp;nbsp;&lt;/i&gt;&lt;span style=&quot;font-family: Arial, sans-serif; font-size: medium; text-align: left; background-color: rgb(242, 242, 242);&quot;&gt;del 1, kap. 3.&lt;/span&gt;" style="rounded=1;whiteSpace=wrap;html=1;" vertex="1" parent="1">
          <mxGeometry x="1200" y="600" width="160" height="60" as="geometry" />
        </mxCell>
        <mxCell id="HFuG7gOnwEqwadIg8AbM-83" value="" style="edgeStyle=orthogonalEdgeStyle;rounded=0;orthogonalLoop=1;jettySize=auto;html=1;" edge="1" parent="1" source="HFuG7gOnwEqwadIg8AbM-82" target="HFuG7gOnwEqwadIg8AbM-78">
          <mxGeometry relative="1" as="geometry" />
        </mxCell>
        <mxCell id="HFuG7gOnwEqwadIg8AbM-82" value="&lt;span style=&quot;font-family: Arial, sans-serif; font-size: medium; text-align: left; background-color: rgb(242, 242, 242);&quot;&gt;Vurderingen bør ta for seg hvert enkelt argument&lt;/span&gt;" style="rounded=1;whiteSpace=wrap;html=1;" vertex="1" parent="1">
          <mxGeometry x="1175" y="840" width="210" height="60" as="geometry" />
        </mxCell>
        <mxCell id="HFuG7gOnwEqwadIg8AbM-84" value="&#xa;&lt;span style=&quot;color: rgb(0, 0, 0); font-family: Arial, sans-serif; font-size: medium; font-style: normal; font-variant-ligatures: normal; font-variant-caps: normal; font-weight: 400; letter-spacing: normal; orphans: 2; text-align: left; text-indent: 0px; text-transform: none; widows: 2; word-spacing: 0px; -webkit-text-stroke-width: 0px; white-space: normal; background-color: rgb(242, 242, 242); text-decoration-thickness: initial; text-decoration-style: initial; text-decoration-color: initial; display: inline !important; float: none;&quot;&gt;Hvis du finner eksempler på usaklig argumentasjon, kan det også kommenteres&lt;/span&gt;&#xa;&#xa;" style="rounded=1;whiteSpace=wrap;html=1;" vertex="1" parent="1">
          <mxGeometry x="830" y="700" width="280" height="80" as="geometry" />
        </mxCell>
        <mxCell id="HFuG7gOnwEqwadIg8AbM-89" value="" style="edgeStyle=orthogonalEdgeStyle;rounded=0;orthogonalLoop=1;jettySize=auto;html=1;" edge="1" parent="1" source="HFuG7gOnwEqwadIg8AbM-86" target="HFuG7gOnwEqwadIg8AbM-88">
          <mxGeometry relative="1" as="geometry" />
        </mxCell>
        <mxCell id="HFuG7gOnwEqwadIg8AbM-91" value="" style="edgeStyle=orthogonalEdgeStyle;rounded=0;orthogonalLoop=1;jettySize=auto;html=1;" edge="1" parent="1" source="HFuG7gOnwEqwadIg8AbM-86" target="HFuG7gOnwEqwadIg8AbM-90">
          <mxGeometry relative="1" as="geometry" />
        </mxCell>
        <mxCell id="HFuG7gOnwEqwadIg8AbM-93" style="edgeStyle=orthogonalEdgeStyle;rounded=0;orthogonalLoop=1;jettySize=auto;html=1;entryX=0;entryY=0.5;entryDx=0;entryDy=0;" edge="1" parent="1" source="HFuG7gOnwEqwadIg8AbM-86" target="HFuG7gOnwEqwadIg8AbM-92">
          <mxGeometry relative="1" as="geometry">
            <Array as="points">
              <mxPoint x="1675" y="550" />
              <mxPoint x="1865" y="550" />
              <mxPoint x="1865" y="490" />
            </Array>
          </mxGeometry>
        </mxCell>
        <mxCell id="HFuG7gOnwEqwadIg8AbM-86" value="&lt;ul style=&quot;box-sizing: revert-layer; font-family: Arial, sans-serif; font-size: medium; text-align: start; background-color: rgb(242, 242, 242);&quot; type=&quot;disc&quot;&gt;&lt;li style=&quot;box-sizing: revert-layer;&quot; lang=&quot;no_no&quot;&gt;Vurderingen skal utelukkende handle om argumentasjonens logiske funksjon.&lt;/li&gt;&lt;/ul&gt;" style="rounded=1;whiteSpace=wrap;html=1;" vertex="1" parent="1">
          <mxGeometry x="1520" y="570" width="310" height="60" as="geometry" />
        </mxCell>
        <mxCell id="HFuG7gOnwEqwadIg8AbM-88" value="&#xa;Støtter det standpunktet direkte eller indirekte?&#xa;&#xa;" style="rounded=1;whiteSpace=wrap;html=1;" vertex="1" parent="1">
          <mxGeometry x="1520" y="430" width="310" height="60" as="geometry" />
        </mxCell>
        <mxCell id="HFuG7gOnwEqwadIg8AbM-90" value="&#xa;Er argumentet relevant?&#xa;&#xa;" style="rounded=1;whiteSpace=wrap;html=1;" vertex="1" parent="1">
          <mxGeometry x="1940" y="420" width="310" height="60" as="geometry" />
        </mxCell>
        <mxCell id="HFuG7gOnwEqwadIg8AbM-92" value="&#xa;Er det riktig eller sannsynlig?&#xa;&#xa;" style="rounded=1;whiteSpace=wrap;html=1;" vertex="1" parent="1">
          <mxGeometry x="1915" y="340" width="120" height="60" as="geometry" />
        </mxCell>
        <mxCell id="HFuG7gOnwEqwadIg8AbM-97" style="edgeStyle=orthogonalEdgeStyle;rounded=0;orthogonalLoop=1;jettySize=auto;html=1;entryX=0;entryY=0;entryDx=0;entryDy=0;" edge="1" parent="1" source="HFuG7gOnwEqwadIg8AbM-95" target="HFuG7gOnwEqwadIg8AbM-86">
          <mxGeometry relative="1" as="geometry">
            <Array as="points">
              <mxPoint x="1285" y="540" />
              <mxPoint x="1520" y="540" />
            </Array>
          </mxGeometry>
        </mxCell>
        <mxCell id="HFuG7gOnwEqwadIg8AbM-95" value="&lt;br&gt;&lt;span style=&quot;font-size:12.0pt;line-height:107%;&lt;br/&gt;font-family:&amp;quot;Times New Roman&amp;quot;,serif;mso-fareast-font-family:&amp;quot;Times New Roman&amp;quot;;&lt;br/&gt;mso-font-kerning:0pt;mso-ligatures:none;mso-ansi-language:NO-BOK;mso-fareast-language:&lt;br/&gt;NO-BOK;mso-bidi-language:AR-SA&quot;&gt;induktive argumenter handler om logisk struktur. hvordan sannsynliggjør noe.&lt;/span&gt;&lt;br&gt;&lt;br&gt;&lt;div&gt;&lt;br/&gt;&lt;/div&gt;" style="rounded=1;whiteSpace=wrap;html=1;" vertex="1" parent="1">
          <mxGeometry x="1130" y="450" width="310" height="70" as="geometry" />
        </mxCell>
        <mxCell id="HFuG7gOnwEqwadIg8AbM-98" value="&#xa;&lt;b&gt;&lt;span style=&quot;font-size:12.0pt;line-height:107%;&#xa;font-family:&amp;quot;Times New Roman&amp;quot;,serif;mso-fareast-font-family:Calibri;mso-fareast-theme-font:&#xa;minor-latin;mso-ansi-language:NO-BOK;mso-fareast-language:EN-US;mso-bidi-language:&#xa;AR-SA&quot;&gt;Adskilte standpunktargumenter (uavhengige):&lt;/span&gt;&lt;/b&gt;&lt;span style=&quot;font-size:12.0pt;line-height:107%;font-family:&amp;quot;Times New Roman&amp;quot;,serif;&#xa;mso-fareast-font-family:Calibri;mso-fareast-theme-font:minor-latin;mso-ansi-language:&#xa;NO-BOK;mso-fareast-language:EN-US;mso-bidi-language:AR-SA&quot;&gt; Disse er flere,&#xa;selvstendige grunner til å støtte det samme standpunktet.&lt;/span&gt;&#xa;&#xa;&#xa;&#xa;" style="rounded=1;whiteSpace=wrap;html=1;" vertex="1" parent="1">
          <mxGeometry x="1950" y="950" width="290" height="130" as="geometry" />
        </mxCell>
        <mxCell id="HFuG7gOnwEqwadIg8AbM-102" value="implisitt vs eksplisitt" style="rounded=1;whiteSpace=wrap;html=1;" vertex="1" parent="1">
          <mxGeometry x="2330" y="540" width="120" height="60" as="geometry" />
        </mxCell>
        <mxCell id="HFuG7gOnwEqwadIg8AbM-104" value="&lt;br&gt;&lt;b&gt;&lt;span style=&quot;font-size:12.0pt;line-height:107%;&lt;br/&gt;font-family:&amp;quot;Times New Roman&amp;quot;,serif;mso-fareast-font-family:Calibri;mso-fareast-theme-font:&lt;br/&gt;minor-latin;mso-ansi-language:NO-BOK;mso-fareast-language:EN-US;mso-bidi-language:&lt;br/&gt;AR-SA&quot;&gt;Forstå og tolke argumentene riktig - forklar&lt;/span&gt;&lt;/b&gt;&lt;div&gt;&lt;br&gt;&lt;/div&gt;" style="rounded=1;whiteSpace=wrap;html=1;" vertex="1" parent="1">
          <mxGeometry x="1850" y="650" width="220" height="50" as="geometry" />
        </mxCell>
        <mxCell id="HFuG7gOnwEqwadIg8AbM-105" value="&#xa;&lt;span style=&quot;color: rgb(0, 0, 0); font-family: Arial, sans-serif; font-size: medium; font-style: normal; font-variant-ligatures: normal; font-variant-caps: normal; font-weight: 400; letter-spacing: normal; orphans: 2; text-align: left; text-indent: 0px; text-transform: none; widows: 2; word-spacing: 0px; -webkit-text-stroke-width: 0px; white-space: normal; background-color: rgb(242, 242, 242); text-decoration-thickness: initial; text-decoration-style: initial; text-decoration-color: initial; display: inline !important; float: none;&quot;&gt;Bruk teori fra pensum om vurdering av riktighet og relevans. Pek gjerne på innvendinger som svekker hvert arguments relevans.&lt;/span&gt;&#xa;&#xa;" style="rounded=1;whiteSpace=wrap;html=1;fillColor=#FF3399;" vertex="1" parent="1">
          <mxGeometry x="780" y="885" width="360" height="110" as="geometry" />
        </mxCell>
        <mxCell id="HFuG7gOnwEqwadIg8AbM-106" style="edgeStyle=orthogonalEdgeStyle;rounded=0;orthogonalLoop=1;jettySize=auto;html=1;entryX=0.148;entryY=1.055;entryDx=0;entryDy=0;entryPerimeter=0;" edge="1" parent="1" source="HFuG7gOnwEqwadIg8AbM-105" target="HFuG7gOnwEqwadIg8AbM-78">
          <mxGeometry relative="1" as="geometry" />
        </mxCell>
      </root>
    </mxGraphModel>
  </diagram>
</mxfile>
